<svg xmlns="http://www.w3.org/2000/svg" width="83.318" height="83.429" viewBox="0 0 83.318 83.429">
  <g id="Group_107" data-name="Group 107" transform="translate(-1554 -651.786)">
    <g id="Group_57" data-name="Group 57" transform="translate(951 633)">
      <path id="Path_94" data-name="Path 94" d="M74.527,76.164c-12.766,10.421-52.628,10.421-65.133,0-12.766-10.421-11.463-54.972,0-66.7s53.67-11.724,65.133,0S87.293,65.743,74.527,76.164Z" transform="translate(602.699 18.234)" fill="#cdcdcd"/>
      <path id="Path_95" data-name="Path 95" d="M42.391,57.376C30.928,66.495,18.162,71.184,6.177,71.445-2.681,56.334-.857,19.6,9.564,8.917,18.943-.723,48.383-2.546,65.318,3.446,69.487,20.641,60.889,42.526,42.391,57.376Z" transform="translate(602.529 18.785)" fill="#ddd"/>
    </g>
    <text id="Save" transform="translate(1596 717)" fill="#333" font-size="17" font-family="ArialRoundedMTBold, Arial Rounded MT"><tspan x="-20.378" y="0">Save</tspan></text>
    <g id="internet" transform="translate(1576.944 660.667)">
      <path id="Path_75" data-name="Path 75" d="M1.459,7.292H3.889v6.32a1.944,1.944,0,1,0,3.889,0V7.292h2.431A1.46,1.46,0,0,0,11.239,4.8L6.864.428A1.455,1.455,0,0,0,4.8.428L.428,4.8A1.46,1.46,0,0,0,1.459,7.292Z" transform="translate(24.89 25.889) rotate(180)" fill="#309fc2"/>
      <path id="Path_76" data-name="Path 76" d="M22.556,23.778H10.889A3.893,3.893,0,0,1,7,19.889V17.945a1.944,1.944,0,1,1,3.889,0v1.944H22.556V17.945a1.945,1.945,0,1,1,3.889,0v1.944A3.893,3.893,0,0,1,22.556,23.778Z" transform="translate(2.333 9.889)" fill="#309fc2"/>
    </g>
  </g>
</svg>
