<?xml version="1.0" encoding="utf-8"?>
<!-- Generator: Adobe Illustrator 24.0.0, SVG Export Plug-In . SVG Version: 6.00 Build 0)  -->
<svg version="1.1" id="Layer_1" xmlns="http://www.w3.org/2000/svg" xmlns:xlink="http://www.w3.org/1999/xlink" x="0px" y="0px"
	 viewBox="0 0 126.8 127" style="enable-background:new 0 0 126.8 127;" xml:space="preserve">
<style type="text/css">
	.st0{fill:#06754B;}
	.st1{fill:#007E4E;}
	.st2{fill:#FFFFFF;}
	.st3{font-family:'ArialMT';}
	.st4{font-size:22px;}
</style>
<g>
	<g id="Group_79" transform="translate(1010.081 446.092)">
		<g id="Group_40" transform="translate(0 0.189)">
			<path id="Path_96" class="st0" d="M-897.1-331.2c-19.4,15.9-80.1,15.9-99.1,0c-19.4-15.9-17.5-83.7,0-101.5
				c17.5-17.8,81.7-17.8,99.1,0C-879.6-414.9-877.7-347-897.1-331.2z"/>
		</g>
		<path id="Path_97" class="st1" d="M-946.3-358.8c-17.5,13.9-36.9,21-55.1,21.4c-13.5-23-10.7-78.9,5.2-95.2
			c14.3-14.7,59.1-17.4,84.9-8.3C-905-414.7-918.1-381.4-946.3-358.8z"/>
	</g>
	<text transform="matrix(1 0 0 1 33.8639 98)" class="st2 st3 st4">STOP</text>
	<g id="pause" transform="translate(-42.667)">
		<g id="Group_22" transform="translate(42.667)">
			<g id="Group_21">
				<path id="Path_85" class="st2" d="M57.1,28.5h-9c-1.5,0-2.7,1.2-2.7,2.7v37.7c0,1.5,1.2,2.7,2.7,2.7h9c1.5,0,2.7-1.2,2.7-2.7
					V31.2C59.8,29.7,58.6,28.5,57.1,28.5z"/>
			</g>
		</g>
		<g id="Group_24" transform="translate(55.579)">
			<g id="Group_23">
				<path id="Path_86" class="st2" d="M65.7,28.5h-9c-1.5,0-2.7,1.2-2.7,2.7v37.7c0,1.5,1.2,2.7,2.7,2.7h9c1.5,0,2.7-1.2,2.7-2.7
					V31.2C68.4,29.7,67.2,28.5,65.7,28.5z"/>
			</g>
		</g>
	</g>
</g>
</svg>
